<svg width="47" height="45" viewBox="0 0 47 45" fill="none" xmlns="http://www.w3.org/2000/svg">
<path d="M17.0697 45L16.1343 37.8C15.6277 37.6125 15.1503 37.3875 14.7021 37.125C14.2539 36.8625 13.8155 36.5812 13.3868 36.2812L6.43035 39.0938L0 28.4062L6.02114 24.0188C5.98217 23.7563 5.96269 23.5031 5.96269 23.2594V21.7406C5.96269 21.4969 5.98217 21.2437 6.02114 20.9812L0 16.5938L6.43035 5.90625L13.3868 8.71875C13.8155 8.41875 14.2637 8.1375 14.7313 7.875C15.199 7.6125 15.6667 7.3875 16.1343 7.2L17.0697 0H29.9303L30.8657 7.2C31.3723 7.3875 31.8497 7.6125 32.2979 7.875C32.7461 8.1375 33.1845 8.41875 33.6132 8.71875L40.5696 5.90625L47 16.5938L40.9789 20.9812C41.0178 21.2437 41.0373 21.4969 41.0373 21.7406V23.2594C41.0373 23.5031 40.9983 23.7563 40.9204 24.0188L46.9415 28.4062L40.5112 39.0938L33.6132 36.2812C33.1845 36.5812 32.7363 36.8625 32.2687 37.125C31.801 37.3875 31.3333 37.6125 30.8657 37.8L29.9303 45H17.0697ZM21.1617 40.5H25.7799L26.5983 34.5375C27.8064 34.2375 28.9268 33.7969 29.9596 33.2156C30.9923 32.6344 31.9374 31.9312 32.7948 31.1062L38.5821 33.4125L40.8619 29.5875L35.8346 25.9313C36.0294 25.4063 36.1658 24.8531 36.2438 24.2719C36.3217 23.6906 36.3607 23.1 36.3607 22.5C36.3607 21.9 36.3217 21.3094 36.2438 20.7281C36.1658 20.1469 36.0294 19.5938 35.8346 19.0688L40.8619 15.4125L38.5821 11.5875L32.7948 13.95C31.9374 13.0875 30.9923 12.3656 29.9596 11.7844C28.9268 11.2031 27.8064 10.7625 26.5983 10.4625L25.8383 4.5H21.2201L20.4017 10.4625C19.1936 10.7625 18.0732 11.2031 17.0404 11.7844C16.0077 12.3656 15.0626 13.0688 14.2052 13.8938L8.41791 11.5875L6.13806 15.4125L11.1654 19.0125C10.9706 19.575 10.8342 20.1375 10.7562 20.7C10.6783 21.2625 10.6393 21.8625 10.6393 22.5C10.6393 23.1 10.6783 23.6813 10.7562 24.2438C10.8342 24.8063 10.9706 25.3688 11.1654 25.9313L6.13806 29.5875L8.41791 33.4125L14.2052 31.05C15.0626 31.9125 16.0077 32.6344 17.0404 33.2156C18.0732 33.7969 19.1936 34.2375 20.4017 34.5375L21.1617 40.5ZM23.6169 30.375C25.8773 30.375 27.8064 29.6063 29.4042 28.0688C31.0021 26.5312 31.801 24.675 31.801 22.5C31.801 20.325 31.0021 18.4688 29.4042 16.9312C27.8064 15.3937 25.8773 14.625 23.6169 14.625C21.3176 14.625 19.3787 15.3937 17.8004 16.9312C16.222 18.4688 15.4328 20.325 15.4328 22.5C15.4328 24.675 16.222 26.5312 17.8004 28.0688C19.3787 29.6063 21.3176 30.375 23.6169 30.375Z" fill="#262347" fill-opacity="0.7"/>
</svg>
